# xmcd
#
# Track frame offsets: 
#        150
#        13193
#        27878
#        40983
#        54930
#        69709
#        82448
#        96511
#        108891
#        120622
#        133212
#        144786
#        156306
#        170162
#        182335
#        196839
#        209887
#        223400
#        237178
#        250863
#        263721
#        275315
#        289462
#        301642
#        312242
#
# Disc length: 4332 seconds
#
# Revision: 1
# Processed by: cddbd v1.5.2PL0 Copyright (c) Steve Scherf et al.
# Submitted via: ExactAudioCopy v1.0b3
#
DISCID=7d10ea19
DTITLE=Tubb, Ernest - The Texas Troubadour [Disk 3]
DYEAR=2003
DGENRE=Honky Tonk
TTITLE0=Blue Eyed Elaine
TTITLE1=I'll Get Along Somehow
TTITLE2=Swell San Angelo
TTITLE3=I'll Never Cry Over You
TTITLE4=My Baby And My Wife
TTITLE5=Please Remember Me
TTITLE6=Our Baby's Book
TTITLE7=First Year Blues
TTITLE8=Wasting My Life Away
TTITLE9=When The World Has Turned You Down
TTITLE10=I'll Always Be Glad To Take You Back
TTITLE11=I Ain't Goin' Honky Tonkin' Anymore
TTITLE12=I've Really Learned A Lot
TTITLE13=I'm Wondering How
TTITLE14=I Know What It Means To Be Lonely
TTITLE15=Are You Waiting Just For Me
TTITLE16=Answer To Walking The Floor Over You
TTITLE17=There's A Little Bit Of Everything In Texas
TTITLE18=Should I Come Back Home To You
TTITLE19=You'll Want Me Back (But I Won't Care)
TTITLE20=There's Gonna Be Some Changes Made Around Here
TTITLE21=I'm Free At Last
TTITLE22=Wondering If You're Wondering Too
TTITLE23=There's Nothing On My Mind
TTITLE24=Don't Brush Them On Me
EXTD=
EXTT0=
EXTT1=
EXTT2=
EXTT3=
EXTT4=
EXTT5=
EXTT6=
EXTT7=
EXTT8=
EXTT9=
EXTT10=
EXTT11=
EXTT12=
EXTT13=
EXTT14=
EXTT15=
EXTT16=
EXTT17=
EXTT18=
EXTT19=
EXTT20=
EXTT21=
EXTT22=
EXTT23=
EXTT24=
PLAYORDER=
